# Blender 4.5.3 LTS
# www.blender.org
o kran_kozlovoi_closed_cool_collider
v -2.452945 10.530127 -14.334925
v -2.452945 10.635822 -14.334925
v -2.452945 10.530127 -9.996222
v -2.452945 10.635822 -9.996222
v -4.055688 10.530127 -14.334925
v -4.055688 10.635822 -14.334925
v -4.055688 10.530127 -9.996222
v -4.055688 10.635822 -9.996222
v -2.669709 10.530127 -9.996222
v -2.669709 10.635822 -9.996222
v -2.669709 10.530127 -14.334925
v -2.669709 10.635822 -14.334925
v -2.452945 10.530127 -14.250593
v -2.452945 10.635822 -14.250593
v -4.055688 10.530127 -14.250593
v -4.055688 10.635822 -14.250593
v -2.669709 10.635822 -14.250593
v -2.669709 10.530127 -14.250593
v -2.452945 10.635822 -10.088849
v -4.055688 10.530127 -10.088849
v -2.452945 10.530127 -10.088849
v -4.055688 10.635822 -10.088849
v -2.669709 10.635822 -10.088849
v -2.669709 10.530127 -10.088849
v -3.953091 10.635822 -9.996222
v -3.953091 10.530127 -14.334925
v -3.953091 10.530127 -9.996222
v -3.953091 10.635822 -14.334925
v -3.953091 10.635822 -14.250593
v -3.953091 10.530127 -14.250593
v -3.953091 10.530127 -10.088849
v -3.953091 10.635822 -10.088849
v -2.452945 10.530127 -13.544350
v -4.055688 10.635822 -13.617249
v -2.669709 10.635822 -13.544350
v -2.669709 10.530127 -13.544350
v -2.452945 10.635822 -13.544350
v -4.055688 10.530127 -13.544350
v -3.953091 10.530127 -13.544350
v -3.953091 10.635822 -13.617249
v -2.452945 10.635822 -12.800735
v -4.055688 10.530127 -12.800735
v -2.452945 10.530127 -12.800735
v -4.055688 10.635822 -12.727837
v -2.669709 10.635822 -12.800735
v -2.669709 10.530127 -12.800735
v -3.953091 10.530127 -12.800735
v -3.953091 10.635822 -12.727837
v -4.055688 11.701439 -14.250593
v -4.055688 11.701439 -14.334925
v -2.669709 11.701439 -14.334925
v -2.452945 11.701439 -14.334925
v -3.953091 11.701439 -14.334925
v -2.669709 11.701439 -14.250593
v -2.452945 11.701439 -14.250593
v -4.055688 11.701439 -13.617249
v -2.669709 11.701439 -13.544350
v -3.953091 11.701439 -14.250593
v -2.452945 11.701439 -12.800735
v -2.452945 11.701439 -10.088849
v -2.669709 11.701439 -9.996222
v -2.669709 11.701439 -10.088849
v -3.953091 11.701439 -10.088849
v -4.055688 11.701439 -10.088849
v -3.953091 11.701439 -9.996222
v -3.953091 11.701439 -13.617249
v -2.669709 11.701439 -12.800735
v -2.452945 11.701439 -13.544350
v -4.055688 11.701439 -12.727837
v -3.953091 11.701439 -12.727837
v 0.000000 0.000000 -12.602229
v 0.000000 0.593852 -12.602229
v 0.000000 0.000000 -11.765058
v 0.000000 0.593852 -11.765058
v -7.501038 0.000000 -12.602229
v -7.501038 0.593852 -12.602229
v -7.501038 0.000000 -11.765058
v -7.501038 0.593852 -11.765058
v -7.137606 0.000000 -11.765058
v -7.137606 0.593852 -11.765058
v -7.137606 0.000000 -12.602229
v -7.137606 0.593852 -12.602229
v -6.237264 0.000000 -11.765058
v -6.237264 0.593852 -12.602229
v -6.237264 0.593852 -11.765058
v -6.237264 0.000000 -12.602229
v -6.170689 1.052992 -11.765058
v -6.872000 1.315173 -11.765058
v -6.872000 1.315173 -12.602229
v -6.170689 1.052992 -12.602229
v -6.110363 1.606820 -11.918723
v -6.460677 1.737783 -11.918723
v -6.460677 1.737783 -12.448564
v -6.110363 1.606820 -12.448564
v -2.329175 11.605389 -10.946734
v -2.755430 11.764740 -10.946734
v -2.755430 11.764740 -13.420553
v -2.329175 11.605389 -13.420553
v -0.866389 15.518246 -10.946734
v -1.292643 15.677597 -10.946734
v -1.292643 15.677597 -13.420553
v -0.866389 15.518246 -13.420553
v 7.501037 0.000000 -12.602229
v 7.501037 0.593852 -12.602229
v 7.501037 0.000000 -11.765058
v 7.501037 0.593852 -11.765058
v 7.137606 0.000000 -11.765058
v 7.137606 0.593852 -11.765058
v 7.137606 0.000000 -12.602229
v 7.137606 0.593852 -12.602229
v 6.237264 0.000000 -11.765058
v 6.237264 0.593852 -12.602229
v 6.237264 0.593852 -11.765058
v 6.237264 0.000000 -12.602229
v 6.170689 1.052992 -11.765058
v 6.872000 1.315173 -11.765058
v 6.872000 1.315173 -12.602229
v 6.170689 1.052992 -12.602229
v 6.110362 1.606820 -11.918723
v 6.460676 1.737783 -11.918723
v 6.460676 1.737783 -12.448564
v 6.110362 1.606820 -12.448564
v 2.329175 11.605389 -10.946734
v 2.755430 11.764740 -10.946734
v 2.755430 11.764740 -13.420553
v 2.329175 11.605389 -13.420553
v 0.866389 15.518246 -10.946734
v 1.292643 15.677597 -10.946734
v 1.292643 15.677597 -13.420553
v 0.866389 15.518246 -13.420553
v 0.000000 0.000000 11.794891
v 0.000000 0.593852 11.794891
v 0.000000 0.000000 12.632063
v 0.000000 0.593852 12.632063
v -7.501038 0.000000 11.794891
v -7.501038 0.593852 11.794891
v -7.501038 0.000000 12.632063
v -7.501038 0.593852 12.632063
v -7.137606 0.000000 12.632063
v -7.137606 0.593852 12.632063
v -7.137606 0.000000 11.794891
v -7.137606 0.593852 11.794891
v -6.237264 0.000000 12.632063
v -6.237264 0.593852 11.794891
v -6.237264 0.593852 12.632063
v -6.237264 0.000000 11.794891
v -6.170689 1.052992 12.632063
v -6.872000 1.315173 12.632063
v -6.872000 1.315173 11.794891
v -6.170689 1.052992 11.794891
v -6.110363 1.606820 12.478397
v -6.460677 1.737783 12.478397
v -6.460677 1.737783 11.948557
v -6.110363 1.606820 11.948557
v -2.329175 11.605389 13.450386
v -2.755430 11.764740 13.450386
v -2.755430 11.764740 10.976568
v -2.329175 11.605389 10.976568
v -0.866389 15.518246 13.450386
v -1.292643 15.677597 13.450386
v -1.292643 15.677597 10.976568
v -0.866389 15.518246 10.976568
v 7.501037 0.000000 11.794891
v 7.501037 0.593852 11.794891
v 7.501037 0.000000 12.632063
v 7.501037 0.593852 12.632063
v 7.137606 0.000000 12.632063
v 7.137606 0.593852 12.632063
v 7.137606 0.000000 11.794891
v 7.137606 0.593852 11.794891
v 6.237264 0.000000 12.632063
v 6.237264 0.593852 11.794891
v 6.237264 0.593852 12.632063
v 6.237264 0.000000 11.794891
v 6.170689 1.052992 12.632063
v 6.872000 1.315173 12.632063
v 6.872000 1.315173 11.794891
v 6.170689 1.052992 11.794891
v 6.110362 1.606820 12.478397
v 6.460676 1.737783 12.478397
v 6.460676 1.737783 11.948557
v 6.110362 1.606820 11.948557
v 2.329175 11.605389 13.450386
v 2.755430 11.764740 13.450386
v 2.755430 11.764740 10.976568
v 2.329175 11.605389 10.976568
v 0.866389 15.518246 13.450386
v 1.292643 15.677597 13.450386
v 1.292643 15.677597 10.976568
v 0.866389 15.518246 10.976568
v -5.005242 2.857903 -13.681971
v -5.005242 2.983621 -13.681971
v -5.005242 2.857903 -12.711930
v -5.005242 2.983621 -12.711930
v -6.398688 2.857903 -13.681971
v -6.398688 2.983621 -13.681971
v -6.398688 2.857903 -12.711930
v -6.398688 2.983621 -12.711930
v -5.005242 2.857903 -13.792126
v -5.005242 2.983621 -13.792126
v -5.005242 2.983621 -12.601775
v -5.005242 2.857903 -12.601775
v -6.398688 2.857903 -12.601775
v -6.398688 2.983621 -12.601775
v -6.398688 2.983621 -13.792126
v -6.398688 2.857903 -13.792126
v -5.005242 4.028666 -12.711930
v -6.398688 4.028666 -12.711930
v -6.398688 4.028666 -13.681971
v -5.005242 4.028666 -13.681971
v -5.005242 4.028666 -12.601775
v -6.398688 4.028666 -12.601775
v -6.398688 4.028666 -13.792126
v -5.005242 4.028666 -13.792126
v -4.924419 2.867692 -13.637939
v -4.653398 4.849244 -13.637939
v -4.924419 2.867692 -12.578418
v -4.653398 4.849244 -12.578418
v -5.119326 2.894350 -13.637939
v -4.848304 4.875901 -13.637939
v -5.119326 2.894350 -12.578418
v -4.848304 4.875901 -12.578418
v -6.727107 0.473741 -13.637939
v -6.330116 2.962969 -13.637939
v -6.727107 0.473741 -12.578418
v -6.330116 2.962969 -12.578418
v -6.814834 0.487732 -13.637939
v -6.417843 2.976960 -13.637939
v -6.814834 0.487732 -12.578418
v -6.417843 2.976960 -12.578418
v -0.510591 13.580396 -11.079232
v -0.510591 13.706113 -10.940405
v -0.510591 13.580396 -10.109192
v -0.510591 13.706113 -10.109192
v -2.086680 13.580396 -11.079232
v -2.086680 13.706113 -10.940405
v -2.086680 13.580396 -10.109192
v -2.086680 13.706113 -10.109192
v -0.510591 13.580396 -11.189387
v -0.510591 13.706113 -11.189387
v -0.510591 13.706113 -9.999037
v -0.510591 13.580396 -9.999037
v -2.086680 13.580396 -9.999037
v -2.086680 13.706113 -9.999037
v -2.086680 13.706113 -11.189387
v -2.086680 13.580396 -11.189387
v -0.510591 14.751158 -10.109192
v -2.086680 14.751158 -10.109192
v -2.086680 14.751158 -10.940405
v -0.510591 14.751158 -10.940405
v -0.510591 14.751158 -9.999037
v -2.086680 14.751158 -9.999037
v -2.086680 14.751158 -11.189387
v -0.510591 14.751158 -11.189387
v 0.407093 13.297264 -19.680513
v 0.407093 13.251255 -19.680513
v 0.407093 13.297264 22.716074
v 0.407093 13.251255 22.716074
v -0.404357 13.297264 -19.680513
v -0.404357 13.251255 -19.680513
v -0.404357 13.297264 22.716074
v -0.404357 13.251255 22.716074
v 1.073854 13.308769 -22.721687
v 1.071714 15.657765 -22.721687
v 1.073854 13.308769 -19.679092
v 1.071714 15.657765 -19.679092
v -1.028359 13.308769 -22.721687
v -1.026219 15.788537 -22.721687
v -1.028359 13.308769 -19.679092
v -1.026219 15.788537 -19.679092
v -0.391297 13.258324 -20.244022
v -0.391297 15.559980 -20.244022
v -0.391297 13.258324 21.540071
v -0.391297 15.559980 21.540071
v -0.639202 13.258324 -20.244022
v -0.639202 15.559980 -20.244022
v -0.639202 13.258324 21.540071
v -0.639202 15.559980 21.540071
v 0.663100 13.258324 -20.244022
v 0.663100 15.559980 -20.244022
v 0.663100 13.258324 21.540071
v 0.663100 15.559980 21.540071
v 0.415195 13.258324 -20.244022
v 0.415195 15.559980 -20.244022
v 0.415195 13.258324 21.540071
v 0.415195 15.559980 21.540071
v -0.391297 13.258324 -10.866127
v -0.391297 15.559980 -10.866127
v -0.639202 13.258324 -10.866127
v -0.639202 15.559980 -10.866127
v -0.391297 15.559980 -10.094820
v -0.639202 13.258324 -10.094820
v -0.391297 13.258324 -10.094820
v -0.639202 15.559980 -10.094820
v 1.232946 12.867178 -22.683985
v 1.232946 13.239527 -22.683985
v 1.232946 12.867178 22.752287
v 1.232946 13.239527 22.752287
v -1.222259 12.867178 -22.683985
v -1.222259 13.239527 -22.683985
v -1.222259 12.867178 22.752287
v -1.222259 13.239527 22.752287
v 0.404709 13.097187 22.640177
v 0.404709 13.980106 22.640177
v 0.404709 13.097187 22.717913
v 0.404709 13.980106 22.717913
v -0.386274 13.097187 22.640177
v -0.386274 13.980106 22.640177
v -0.386274 13.097187 22.717913
v -0.386274 13.980106 22.717913
v -0.355212 13.097187 22.701090
v -0.355212 13.980106 22.701090
v -0.432950 13.097187 22.701090
v -0.432950 13.980106 22.701090
v -0.355212 13.097187 21.465849
v -0.355212 13.980106 21.465849
v -0.432950 13.097187 21.465849
v -0.432950 13.980106 21.465849
v 0.449060 13.097187 22.701090
v 0.449060 13.980106 22.701090
v 0.371323 13.097187 22.701090
v 0.371323 13.980106 22.701090
v 0.449060 13.097187 21.465849
v 0.449060 13.980106 21.465849
v 0.371323 13.097187 21.465849
v 0.371323 13.980106 21.465849
s 0
f 21 19 4 3
f 27 25 8 7
f 15 16 6 5
f 11 12 2 1
f 30 15 5 26
f 12 28 53 51
f 32 25 65 63
f 13 18 11 1
f 26 28 12 11
f 3 4 10 9
f 33 36 18 13
f 40 35 17 29
f 25 10 61 65
f 39 38 15 30
f 38 34 16 15
f 1 2 14 13
f 7 8 22 20
f 27 7 20 31
f 10 4 19 23
f 23 32 63 62
f 3 9 24 21
f 43 41 19 21
f 8 25 32 22
f 9 27 31 24
f 36 39 30 18
f 10 23 62 61
f 5 6 28 26
f 14 2 52 55
f 18 30 26 11
f 9 10 25 27
f 44 48 40 34
f 46 47 39 36
f 13 14 37 33
f 42 44 34 38
f 47 42 38 39
f 45 23 62 67
f 48 45 35 40
f 43 46 36 33
f 21 24 46 43
f 32 23 45 48
f 44 22 64 69
f 31 20 42 47
f 20 22 44 42
f 24 31 47 46
f 37 14 55 68
f 33 37 41 43
f 54 55 52 51
f 58 54 51 53
f 57 68 55 54
f 65 61 62 63
f 56 66 58 49
f 49 58 53 50
f 67 59 68 57
f 62 60 59 67
f 64 63 70 69
f 6 16 49 50
f 16 34 56 49
f 48 44 69 70
f 34 40 66 56
f 32 48 70 63
f 17 35 57 54
f 41 37 68 59
f 19 41 59 60
f 28 6 50 53
f 35 45 67 57
f 23 19 60 62
f 40 29 58 66
f 2 12 51 52
f 29 17 54 58
f 22 32 63 64
f 71 72 74 73
f 79 80 78 77
f 77 78 76 75
f 86 84 72 71
f 79 77 75 81
f 85 74 72 84
f 78 80 82 76
f 83 79 81 86
f 75 76 82 81
f 83 85 80 79
f 73 74 85 83
f 73 83 86 71
f 82 80 88 89
f 81 82 84 86
f 87 90 94 91
f 84 82 89 90
f 85 84 90 87
f 80 85 87 88
f 91 94 98 95
f 89 88 92 93
f 90 89 93 94
f 88 87 91 92
f 98 97 101 102
f 93 92 96 97
f 94 93 97 98
f 92 91 95 96
f 100 99 102 101
f 96 95 99 100
f 95 98 102 99
f 97 96 100 101
f 107 105 106 108
f 105 103 104 106
f 114 71 72 112
f 107 109 103 105
f 113 112 72 74
f 106 104 110 108
f 111 114 109 107
f 103 109 110 104
f 111 107 108 113
f 73 111 113 74
f 73 71 114 111
f 110 117 116 108
f 109 114 112 110
f 115 119 122 118
f 112 118 117 110
f 113 115 118 112
f 108 116 115 113
f 119 123 126 122
f 117 121 120 116
f 118 122 121 117
f 116 120 119 115
f 126 130 129 125
f 121 125 124 120
f 122 126 125 121
f 120 124 123 119
f 128 129 130 127
f 124 128 127 123
f 123 127 130 126
f 125 129 128 124
f 131 132 134 133
f 139 140 138 137
f 137 138 136 135
f 146 144 132 131
f 139 137 135 141
f 145 134 132 144
f 138 140 142 136
f 143 139 141 146
f 135 136 142 141
f 143 145 140 139
f 133 134 145 143
f 133 143 146 131
f 142 140 148 149
f 141 142 144 146
f 147 150 154 151
f 144 142 149 150
f 145 144 150 147
f 140 145 147 148
f 151 154 158 155
f 149 148 152 153
f 150 149 153 154
f 148 147 151 152
f 158 157 161 162
f 153 152 156 157
f 154 153 157 158
f 152 151 155 156
f 160 159 162 161
f 156 155 159 160
f 155 158 162 159
f 157 156 160 161
f 167 165 166 168
f 165 163 164 166
f 174 131 132 172
f 167 169 163 165
f 173 172 132 134
f 166 164 170 168
f 171 174 169 167
f 163 169 170 164
f 171 167 168 173
f 133 171 173 134
f 133 131 174 171
f 170 177 176 168
f 169 174 172 170
f 175 179 182 178
f 172 178 177 170
f 173 175 178 172
f 168 176 175 173
f 179 183 186 182
f 177 181 180 176
f 178 182 181 177
f 176 180 179 175
f 186 190 189 185
f 181 185 184 180
f 182 186 185 181
f 180 184 183 179
f 188 189 190 187
f 184 188 187 183
f 183 187 190 186
f 185 189 188 184
f 191 192 194 193
f 193 194 201 202
f 197 198 196 195
f 194 198 208 207
f 193 197 195 191
f 198 194 192 196
f 202 201 204 203
f 206 205 200 199
f 192 191 199 200
f 191 195 206 199
f 198 197 203 204
f 197 193 202 203
f 205 196 209 213
f 195 196 205 206
f 207 208 212 211
f 209 210 214 213
f 201 194 207 211
f 200 205 213 214
f 204 201 211 212
f 192 200 214 210
f 196 192 210 209
f 198 204 212 208
f 215 216 218 217
f 217 218 222 221
f 221 222 220 219
f 219 220 216 215
f 217 221 219 215
f 222 218 216 220
f 223 224 226 225
f 225 226 230 229
f 229 230 228 227
f 227 228 224 223
f 225 229 227 223
f 230 226 224 228
f 231 232 234 233
f 233 234 241 242
f 237 238 236 235
f 234 238 248 247
f 233 237 235 231
f 238 234 232 236
f 242 241 244 243
f 246 245 240 239
f 232 231 239 240
f 231 235 246 239
f 238 237 243 244
f 237 233 242 243
f 245 236 249 253
f 235 236 245 246
f 247 248 252 251
f 249 250 254 253
f 241 234 247 251
f 240 245 253 254
f 244 241 251 252
f 232 240 254 250
f 236 232 250 249
f 238 244 252 248
f 255 256 258 257
f 257 258 262 261
f 261 262 260 259
f 259 260 256 255
f 257 261 259 255
f 262 258 256 260
f 263 264 266 265
f 265 266 270 269
f 269 270 268 267
f 267 268 264 263
f 265 269 267 263
f 270 266 264 268
f 293 291 274 273
f 273 274 278 277
f 289 290 276 275
f 275 276 272 271
f 287 289 275 271
f 290 288 272 276
f 279 280 282 281
f 281 282 286 285
f 285 286 284 283
f 283 284 280 279
f 281 285 283 279
f 286 282 280 284
f 288 290 289 287
f 271 272 288 287
f 277 278 294 292
f 273 277 292 293
f 278 274 291 294
f 292 294 291 293
f 295 296 298 297
f 297 298 302 301
f 301 302 300 299
f 299 300 296 295
f 297 301 299 295
f 302 298 296 300
f 303 304 306 305
f 305 306 310 309
f 309 310 308 307
f 307 308 304 303
f 305 309 307 303
f 310 306 304 308
f 311 312 314 313
f 313 314 318 317
f 317 318 316 315
f 315 316 312 311
f 313 317 315 311
f 318 314 312 316
f 319 320 322 321
f 321 322 326 325
f 325 326 324 323
f 323 324 320 319
f 321 325 323 319
f 326 322 320 324
